<svg width="107" height="40" viewBox="0 0 107 40" fill="none" xmlns="http://www.w3.org/2000/svg">
<g clip-path="url(#clip0_5_218)">
<mask id="mask0_5_218" style="mask-type:luminance" maskUnits="userSpaceOnUse" x="0" y="1" width="35" height="39">
<path d="M0 1.10577H34.355V40H0V1.10577Z" fill="white"/>
</mask>
<g mask="url(#mask0_5_218)">
<path d="M15.9562 1.59055H15.5422L15.3352 1.64263L14.972 1.69471L14.8171 1.74679L14.5059 1.79888L14.351 1.85096L14.1947 1.90305L13.9357 1.95513L13.7807 2.00721L13.5737 2.0593L13.4175 2.11138L13.2105 2.16213L13.1077 2.21421L12.9007 2.26629L12.7444 2.31838L12.6416 2.37046L12.4332 2.42254L12.3304 2.47463L12.1755 2.52671L12.0713 2.57879L11.9164 2.63088L11.8123 2.68296L11.6573 2.73504L11.449 2.83921L11.2941 2.89129L11.1913 2.94338L11.0871 2.99546L10.9829 3.04621L10.828 3.09829L10.7759 3.15037L10.621 3.20246L10.5168 3.25454L10.4648 3.30662L10.3098 3.35871L10.2578 3.41079L10.1549 3.46288L10.0508 3.51496L9.94793 3.56704L9.84377 3.61913L9.79168 3.67121L9.68885 3.72329L9.48052 3.82746L9.42977 3.87954L9.3256 3.93029L9.22277 3.98237L9.17069 4.03446L9.06652 4.08654L9.01444 4.13862L8.91161 4.19071L8.85952 4.24279L8.75536 4.29487L8.70461 4.34696L8.49628 4.45112L8.44553 4.50321L8.39345 4.55529L8.28928 4.60737L8.23853 4.65946L8.13436 4.71154L8.08228 4.76229L8.0302 4.81437L7.92737 4.86645L7.8232 4.97062L7.72037 5.0227L7.66828 5.07479L7.56412 5.12687V5.23104H7.46129L7.4092 5.28312L7.30504 5.3352L7.25295 5.38729L7.2022 5.43937L7.09804 5.49146V5.59562H6.99521L6.94312 5.64637L6.83896 5.75054L6.73613 5.80262L6.52779 6.01095L6.47704 6.06304L6.42496 6.11512L6.32079 6.1672L6.27005 6.21929L6.16588 6.32345V6.42762H6.06171L6.01096 6.4797L5.95888 6.53045L5.80263 6.6867L5.75188 6.73878L5.54355 6.94712L5.4928 6.9992L5.28447 7.20753L5.23372 7.25962V7.36378H5.12955L5.07747 7.41453L5.02672 7.46662L4.87047 7.62287L4.81839 7.72703L4.76764 7.77912L4.55931 7.98745L4.50856 8.03953L4.45648 8.1437L4.35231 8.24787L4.30023 8.29861V8.40278H4.19739L4.14531 8.50695L4.09323 8.55903L4.04248 8.61111L3.9904 8.71528L3.83415 8.87153L3.7834 8.92361L3.73131 9.02778L3.67923 9.07986L3.62715 9.1827L3.57506 9.23478V9.33895H3.47223V9.4952H3.36807L3.31598 9.59936L3.26523 9.65145L3.21315 9.70353L3.16107 9.8077L3.10898 9.85978L3.05824 9.96395L3.00615 10.0668V10.1709H2.90199L2.8499 10.2751L2.79916 10.3793L2.74707 10.4314L2.69499 10.5355L2.64291 10.5876L2.59082 10.7439L2.54007 10.7959L2.48799 10.848L2.43591 10.9509L2.33174 11.1592L2.28099 11.2113L2.22891 11.3675L2.17683 11.4196L2.12474 11.5759L2.07399 11.6279L2.02191 11.7321L1.96983 11.8349L1.91774 11.887L1.86566 12.0433L1.81491 12.0954L1.76283 12.2516L1.71075 12.3558L1.65866 12.512L1.60658 12.5641L1.55583 12.6669L1.50375 12.8232L1.45166 12.9274L1.39958 13.0836L1.3475 13.1357L1.29675 13.344L1.24467 13.4482L1.19258 13.6031L1.1405 13.7073L1.08975 13.8114L1.03767 14.0198L0.985585 14.1239L0.933502 14.3323L0.881418 14.4351L0.830671 14.6434L0.726504 14.9559L0.67442 15.1643L0.622337 15.2671L0.571589 15.5796L0.519506 15.7359L0.467422 15.9963L0.415339 16.1525L0.363256 16.5158L0.312508 16.672L0.260424 16.9324L0.208341 17.2957L0.156257 17.5561L0.10551 18.0756L0.0534262 18.4402L0.00134277 19.3763V21.9244L0.0534262 22.8085L0.10551 23.1731L0.156257 23.7447L0.208341 24.0037L0.260424 24.3683L0.312508 24.5767L0.363256 24.785L0.415339 25.0962L0.467422 25.3045L0.519506 25.5649L0.571589 25.7212L0.622337 25.9802L0.67442 26.1365L0.726504 26.3448L0.778587 26.5011L0.830671 26.6052L0.881418 26.8643L0.933502 26.9685L0.985585 27.1768L1.03767 27.281L1.08975 27.4893L1.1405 27.5414L1.19258 27.6963L1.24467 27.8526L1.29675 27.9567L1.3475 28.113L1.39958 28.2172L1.45166 28.3734L1.50375 28.4762L1.55583 28.6325L1.60658 28.7367L1.65866 28.7887L1.71075 28.945L1.81491 29.1533L1.86566 29.2575L1.91774 29.4124L1.96983 29.4645L2.07399 29.6728L2.12474 29.7249L2.17683 29.8812L2.22891 29.9332L2.28099 30.0895L2.33174 30.1416L2.38382 30.2444L2.43591 30.3486L2.48799 30.4007L2.54007 30.5048L2.59082 30.5569L2.64291 30.7132L2.69499 30.7652L2.74707 30.8694L2.79916 30.9215L2.8499 31.0243L2.95407 31.1285L3.05824 31.3368L3.10898 31.441H3.21315V31.5452L3.26523 31.6493L3.31598 31.7014L3.36807 31.8056H3.47223V31.9084L3.52432 31.9605L3.57506 32.0647L3.62715 32.1167L3.67923 32.2209L3.73131 32.273L3.7834 32.3771H3.88623V32.4813L3.9904 32.5855L4.04248 32.6897L4.09323 32.7417L4.14531 32.7938L4.19739 32.8446L4.24948 32.8967L4.30023 33.0008L4.45648 33.1571L4.50856 33.2612L4.55931 33.3133L4.76764 33.5217L4.81839 33.5737L4.87047 33.6766H4.97464V33.7807L5.02672 33.8328L5.07747 33.8849L5.12955 33.937H5.23372V34.0411L5.28447 34.0932L5.4928 34.3016L5.54355 34.3536L5.6998 34.5099L5.75188 34.5606L5.80263 34.6127L5.95888 34.769H6.06171V34.8731H6.16588V34.9773H6.27005V35.0815L6.37288 35.1336L6.47704 35.2377L6.52779 35.2898L6.63196 35.394L6.68404 35.4447L6.78687 35.4968L6.99521 35.7051L7.09804 35.7572L7.25429 35.9135L7.35712 35.9656L7.46129 36.0697H7.56412V36.1739L7.66828 36.226L7.72037 36.2767L7.8232 36.3288L7.87528 36.3809L7.97945 36.433L8.0302 36.4851L8.13436 36.5892L8.23853 36.6413L8.28928 36.6934L8.39345 36.7455H8.49628V36.8496L8.70461 36.9538L8.75536 37.0059L8.85952 37.058L8.91161 37.1101L9.01444 37.1608L9.06652 37.2129H9.22277V37.3171L9.3256 37.3691L9.42977 37.4212L9.48052 37.4733L9.68885 37.5775L9.79168 37.6296L9.84377 37.6816L9.99868 37.7337L10.0508 37.7858L10.1549 37.8379L10.2578 37.89L10.3619 37.9421L10.4648 37.9941L10.5168 38.0449L10.6731 38.097L10.7759 38.1491L10.8801 38.2011L10.9829 38.2532L11.1913 38.3574L11.2941 38.4095L11.449 38.4616L11.5532 38.5136L11.7081 38.5657L11.8123 38.6178L11.9672 38.6699L12.1755 38.7741L12.3825 38.8261L12.4332 38.8769L12.6416 38.929L12.7444 38.9811L12.9514 39.0331L13.1077 39.0852L13.2105 39.1373L13.4175 39.1894L13.5737 39.2415L13.7807 39.2936L13.9357 39.3456L14.1947 39.3977L14.351 39.4498L14.6101 39.5019L14.8171 39.554L14.972 39.6061L15.3352 39.6581L15.5422 39.7102L15.9041 39.7623L16.1632 39.8131L16.7335 39.8651L17.0967 39.9172L17.9768 39.9693H20.5155L21.4477 39.9172L21.8096 39.8651L22.3278 39.8131L22.5868 39.7623L23.0022 39.7102L23.2092 39.6581L23.5203 39.6061L23.7273 39.554L23.8822 39.5019L24.1934 39.4498L24.2962 39.3977L24.6074 39.3456L24.7116 39.2936L24.9707 39.2415L25.0735 39.1894L25.2805 39.1373L25.4367 39.0852L25.5396 39.0331L25.7466 38.9811L25.8507 38.929L26.0577 38.8769L26.1619 38.8261L26.3168 38.7741L26.421 38.722L26.5238 38.6699L26.7308 38.6178L26.7829 38.5657L26.9899 38.5136L27.042 38.4616L27.1982 38.4095L27.301 38.3574L27.456 38.3053L27.508 38.2532L27.6122 38.2011L27.7671 38.1491L27.8192 38.097L27.9741 38.0449L28.0262 37.9941L28.1825 37.9421L28.2332 37.89L28.3895 37.8379L28.4415 37.7858L28.5444 37.7337L28.6485 37.6816L28.6993 37.6296L28.8555 37.5775L28.9076 37.5254L29.0105 37.4733L29.1146 37.4212L29.1667 37.3691L29.2695 37.3171L29.3216 37.265L29.4258 37.2129L29.4765 37.1608L29.5807 37.1101L29.6835 37.058L29.7877 37.0059L29.8919 36.9017L29.9947 36.8496L30.0468 36.7976L30.1509 36.7455L30.2017 36.6934L30.3059 36.6413L30.3579 36.5892L30.4087 36.5371L30.5129 36.4851V36.3809H30.617L30.7199 36.3288L30.7719 36.2767L30.824 36.226L30.9269 36.1739L31.031 36.0697L31.1352 36.0176L31.1859 35.9656L31.2901 35.8614L31.3943 35.8093L31.445 35.7572L31.6013 35.601L31.7041 35.5489V35.4447H31.8083L31.8603 35.394L31.9111 35.3419L31.9632 35.2898L32.0673 35.2377V35.1336H32.1702L32.3264 34.9773L32.3772 34.9252L32.5855 34.7169L32.6363 34.6648L32.7404 34.6127V34.5099H32.8446V34.4057H32.9474L32.9995 34.3536V34.2495H33.1037L33.1544 34.1453L33.3107 33.9891L33.3614 33.937L33.5698 33.7286L33.6205 33.6766L33.6726 33.6245L33.7247 33.5217L33.8288 33.4175L33.8796 33.3654L34.0358 33.2092V33.105H34.1387L34.1907 33.0008L34.2428 32.9487V32.8967C34.1814 32.7124 33.917 33.121 33.7247 33.2612C33.5764 33.3694 33.3 33.6231 33.1411 33.7674C32.7444 34.1306 32.3478 34.4017 31.9204 34.7262C31.0831 35.3619 30.1376 35.8414 29.1667 36.3301C27.4974 37.1702 24.582 37.9421 22.0687 37.9421H20.6183C11.3248 37.9421 3.10898 29.5687 3.10898 20.1563V18.7006C3.10898 16.1405 3.83949 13.9143 4.58067 12.0646C5.33254 10.1883 6.58789 8.60043 7.78447 7.16881C8.8849 5.85337 10.7292 4.46181 12.2476 3.53499C13.3267 2.87794 16.6306 1.43429 18.2359 1.43429V1.38221L15.9562 1.59055Z" fill="white" stroke="white" stroke-width="0.0021008"/>
</g>
<path d="M73.5097 28.6325L71.7482 28.6846L71.0738 28.7367L69.9346 28.7888L69.4165 28.8408L68.9504 28.8929L68.1211 28.945L67.7071 28.9971L66.9298 29.0492L66.5158 29.1012L65.8427 29.1533L65.4795 29.2054L64.8064 29.2562L64.4432 29.3082L64.0812 29.3603L63.511 29.4124L63.1998 29.4645L62.5788 29.5166L62.2677 29.5687L61.7495 29.6207L61.4397 29.6728L61.0244 29.7249L60.6104 29.777L60.3513 29.8291L59.8852 29.8812L59.6261 29.9332L59.108 29.9853L58.8489 30.0374L58.3828 30.0895L58.1237 30.1416L57.9167 30.1923L57.4506 30.2444L57.2436 30.2965L56.7762 30.3486L56.5692 30.4007L56.1031 30.4527L55.8961 30.5048L55.4822 30.5569L55.2752 30.609L55.0668 30.6611L54.6528 30.7132L54.4458 30.7652L54.0318 30.8173L53.8756 30.8694L53.4616 30.9215L53.2546 30.9736L52.9434 31.0243L52.6843 31.0764L52.4773 31.1285L52.1141 31.1806L51.9592 31.2327L51.5973 31.2847L51.3889 31.3368L51.0791 31.3889L50.8708 31.441L50.613 31.4931L50.3539 31.5452L50.1456 31.5972L49.8358 31.6493L49.6274 31.7014L49.3176 31.7535L49.1614 31.8056L48.8515 31.8563L48.6445 31.9084L48.4883 31.9605L48.1771 32.0126L47.9701 32.0647L47.711 32.1167L47.504 32.1688L47.245 32.2209L47.038 32.273L46.7789 32.3251L46.5719 32.3772L46.4677 32.4292L46.1058 32.4813L46.0016 32.5334L45.6918 32.5855L45.5356 32.6376L45.2765 32.6897L45.1216 32.7417L44.8625 32.7925L44.6555 32.8446L44.4992 32.8967L44.2402 32.9487L44.0852 33.0008L43.8262 33.0529L43.6712 33.105L43.4122 33.1571L43.2559 33.2092L42.8419 33.3133L42.687 33.3654L42.4279 33.4175L42.2717 33.4696L42.0126 33.5217L41.9098 33.5724L41.6507 33.6245L41.4958 33.6766L41.3916 33.7287L41.0804 33.7807L40.9776 33.8328L40.7185 33.8849L40.5623 33.937L40.3553 33.9891L40.2004 34.0412L39.9934 34.0932L39.8371 34.1453L39.6822 34.1974L39.4231 34.2495L39.3189 34.3016L39.0599 34.3537L38.957 34.4057L38.698 34.4578L38.5938 34.5086L38.3868 34.5607L38.2319 34.6127L38.0756 34.6648L37.8686 34.7169L37.7658 34.769L37.5067 34.8211L37.4025 34.8732L37.1955 34.9252L37.0406 34.9773L36.8844 35.0294L36.6774 35.0815L36.5732 35.1336L36.3662 35.1857L36.2113 35.2377L36.1071 35.3419L36.0043 35.3927V35.4968H35.9001L35.8481 35.5489L35.7973 35.601L35.6931 35.6531L35.6411 35.7052L35.5903 35.7572L35.5382 35.8093L35.4341 35.8614L35.382 35.9135L35.3312 35.9656L35.2791 36.0177L35.175 36.0697L35.0721 36.1726L34.968 36.2246V36.3288H34.8638L34.8131 36.3809L34.761 36.433L34.6568 36.4851L34.6047 36.5371L34.554 36.5892L34.5019 36.6413L34.3977 36.6934L34.347 36.7455V36.8497H34.5019L34.6568 36.7976L34.8638 36.7455L34.968 36.6934L35.2271 36.6413L35.3312 36.5892L35.5382 36.5371L35.6931 36.4851L35.7973 36.433L36.0043 36.3809L36.1592 36.3288L36.3662 36.2767L36.4704 36.2246L36.6774 36.1726L36.8323 36.1218L37.0406 36.0697L37.1955 36.0177L37.2997 35.9656L37.5575 35.9135L37.6616 35.8614L37.9207 35.8093L38.0249 35.7572L38.2319 35.7052L38.3868 35.6531L38.5938 35.601L38.75 35.5489L38.9049 35.4968L39.164 35.4447L39.3189 35.3927L39.5273 35.3419L39.6822 35.2898L39.8892 35.2377L40.0441 35.1857L40.2004 35.1336L40.4594 35.0815L40.6143 35.0294L40.8734 34.9773L40.9776 34.9252L41.2367 34.8732L41.3916 34.8211L41.6507 34.769L41.8056 34.7169L41.9618 34.6648L42.2209 34.6127L42.3758 34.5607L42.6349 34.5086L42.7898 34.4578L43.101 34.4057L43.2052 34.3537L43.515 34.3016L43.6712 34.2495L43.8262 34.1974L44.0852 34.1453L44.2402 34.0932L44.5513 34.0412L44.7062 33.9891L45.0174 33.937L45.1737 33.8849L45.4835 33.8328L45.6397 33.7807L45.7946 33.7287L46.1058 33.6766L46.3128 33.6245L46.624 33.5724L46.7789 33.5217L47.1421 33.4696L47.452 33.3654L47.8152 33.3133L47.9701 33.2612L48.3334 33.2092L48.4883 33.1571L48.8515 33.105L49.0585 33.0529L49.4204 33.0008L49.6274 32.9487L49.7837 32.8967L50.1456 32.8446L50.3539 32.7925L50.7679 32.7417L50.9749 32.6897L51.3382 32.6376L51.5452 32.5855L51.9071 32.5334L52.1141 32.4813L52.3732 32.4292L52.7885 32.3772L53.0476 32.3251L53.4616 32.273L53.6686 32.2209L54.0826 32.1688L54.3417 32.1167L54.8077 32.0647L55.3259 31.9605L55.792 31.9084L56.0511 31.8563L56.5692 31.8056L56.8283 31.7535L57.3986 31.7014L57.6576 31.6493L57.9688 31.5972L58.5377 31.5452L58.8489 31.4931L59.4191 31.441L59.781 31.3889L60.3513 31.3368L60.7145 31.2847L61.4397 31.2327L61.8016 31.1806L62.1649 31.1285L62.9928 31.0764L63.4082 31.0243L64.2362 30.9736L64.7022 30.9215L65.7386 30.8694L66.2567 30.8173L67.3959 30.7652L68.1731 30.7132L69.0545 30.6611H76.4103L77.2904 30.7132L78.0676 30.7652L79.1561 30.8173L79.725 30.8694L80.6064 30.9215L81.0204 30.9736L81.7976 31.0243L82.2116 31.0764L82.886 31.1285L83.1959 31.1806L83.5591 31.2327L84.128 31.2847L84.4392 31.3368L85.0094 31.3889L85.2685 31.441L85.7867 31.4931L86.0458 31.5452L86.5118 31.5972L87.03 31.7014L87.4961 31.7535L87.7031 31.8056L88.1691 31.8563L88.3761 31.9084L88.7915 31.9605L88.9985 32.0126L89.2576 32.0647L89.5674 32.1167L89.8265 32.1688L90.1897 32.2209L90.3967 32.273L90.76 32.3251L90.9149 32.3772L91.2768 32.4292L91.4851 32.4813L91.64 32.5334L91.9512 32.5855L92.1582 32.6376L92.4694 32.6897L92.6243 32.7417L92.9862 32.7925L93.1424 32.8446L93.4536 32.8967L93.6085 32.9487L93.8155 33.0008L94.0746 33.0529L94.2295 33.105L94.5407 33.1571L94.6969 33.2092L94.9547 33.2612L95.1109 33.3133L95.4221 33.3654L95.7319 33.4696L95.991 33.5217L96.1473 33.5724L96.4063 33.6245L96.5092 33.6766L96.7682 33.7287L96.9232 33.7807L97.1315 33.8328L97.3385 33.8849L97.4934 33.937L97.7004 33.9891L97.8567 34.0412L98.1157 34.0932L98.2186 34.1453L98.4776 34.1974L98.6326 34.2495H98.7888L98.893 34.1453L98.9437 34.0932L99.0479 33.9891L99.1507 33.937L99.2028 33.8328L99.307 33.7807L99.3591 33.7287L99.4098 33.6766L99.514 33.5724L99.5661 33.5217L99.6181 33.4696L99.6689 33.4175L99.8251 33.2612L99.8759 33.2092L100.136 32.9487L100.187 32.8967L100.291 32.7925L100.343 32.7417L100.394 32.6897L100.602 32.4813L100.653 32.4292L100.861 32.2209H100.912L101.016 32.273H101.171V32.1688L101.119 32.1167L100.964 32.0647L100.446 31.9605L100.343 31.9084L100.187 31.8563L99.928 31.8056L99.8251 31.7535L99.5661 31.7014L99.4098 31.6493L99.1507 31.5972L98.9958 31.5452L98.7888 31.4931L98.6339 31.441L98.4776 31.3889L98.2186 31.3368L98.0637 31.2847L97.7525 31.2327L97.5976 31.1806L97.3385 31.1285L97.1822 31.0764L97.0273 31.0243L96.7162 30.9736L96.5612 30.9215L96.3022 30.8694L96.0952 30.8173L95.8361 30.7652L95.6291 30.7132L95.3179 30.6611L95.163 30.609L94.9547 30.5569L94.6448 30.5048L94.4886 30.4527L94.1267 30.4007L93.9704 30.3486L93.6085 30.2965L93.4015 30.2444L93.0383 30.1923L92.8834 30.1416L92.6764 30.0895L92.3131 30.0374L92.1061 29.9853L91.6921 29.9332L91.4851 29.8812L91.0698 29.8291L90.8628 29.777L90.5516 29.7249L90.1897 29.6728L89.9306 29.6207L89.4646 29.5687L89.2576 29.5166L88.7394 29.4645L88.4803 29.4124L87.9622 29.3603L87.7031 29.3082L87.3398 29.2562L86.8217 29.2054L86.5118 29.1533L85.8387 29.1012L85.5276 29.0492L84.8024 28.9971L84.3871 28.945L83.5591 28.8929L83.1438 28.8408L82.5749 28.7888L81.4865 28.7367L80.8134 28.6846L79.104 28.6325L77.2904 28.5804H75.3219L73.5097 28.6325Z" fill="white" stroke="white" stroke-width="0.0021008"/>
<path d="M75.0629 25.7732L74.2349 25.824L72.9915 25.8761L72.4213 25.9282L71.4891 25.9802L71.0231 26.0323L70.2458 26.0844L69.8305 26.1365L69.1574 26.1886L68.6913 26.2407L68.3294 26.2927L67.655 26.3448L67.241 26.3969L66.62 26.449L66.3088 26.5011L65.7386 26.5532L65.3767 26.6052L65.0655 26.656L64.5474 26.7081L64.2362 26.7602L63.718 26.8122L63.4082 26.8643L62.89 26.9164L62.631 26.9685L62.1649 27.0206L61.8537 27.0727L61.5946 27.1247L61.1285 27.1768L60.8695 27.2289L60.4555 27.281L60.1964 27.3331L59.729 27.3852L59.522 27.4372L59.108 27.4893L58.8489 27.5401L58.5898 27.5921L58.2279 27.6442L57.9688 27.6963L57.6056 27.7484L57.3986 27.8005L56.9846 27.8526L56.4664 27.9567L56.1552 28.0088L55.9483 28.0609L55.585 28.113L55.378 28.1651L55.0161 28.2171L54.8078 28.2692L54.4979 28.3213L54.2909 28.3734L54.0826 28.4241L53.7728 28.4762L53.5658 28.5283L53.2025 28.5804L53.0476 28.6325L52.6844 28.6846L52.5294 28.7366L52.2183 28.7887L52.0113 28.8408L51.855 28.8929L51.4931 28.945L51.3382 28.9971L51.027 29.0491L50.82 29.1012L50.5089 29.1533L50.354 29.2054L50.0949 29.2561L49.8865 29.3082L49.7316 29.3603L49.4205 29.4124L49.2656 29.4645L48.9544 29.5166L48.7995 29.5686L48.5404 29.6207L48.1264 29.7249L47.9181 29.777L47.7631 29.8291L47.5041 29.8811L47.2971 29.9332L47.038 29.9853L46.8831 30.0374L46.624 30.0895L46.4677 30.1402L46.3128 30.1923L46.0537 30.2444L45.8988 30.2965L45.6397 30.3486L45.4835 30.4006L45.2244 30.4527L45.0695 30.5048L44.8104 30.5569L44.6555 30.609L44.5513 30.6611L44.2923 30.7131L44.1373 30.7652L43.8783 30.8173L43.7741 30.8694L43.515 30.9215L43.3601 30.9736L43.1531 31.0243L42.9461 31.0764L42.8419 31.1285L42.5829 31.1806L42.4787 31.2326L42.2209 31.2847L42.1168 31.3368L41.8577 31.3889L41.7028 31.441L41.5465 31.4931L41.3395 31.5451L41.2367 31.5972L40.9776 31.6493L40.8214 31.7014L40.6144 31.7535L40.5102 31.8056L40.2525 31.8563L40.1483 31.9084L39.9934 31.9605L39.785 32.0126L39.6301 32.0646L39.4231 32.1167L39.319 32.1688L39.0599 32.2209L38.9571 32.273L38.7501 32.3251L38.698 32.3771V32.4813H38.5938L38.5431 32.5334L38.4389 32.5855L38.284 32.7404L38.1798 32.7925L38.0756 32.8966L38.0249 32.9487L37.9728 33.0008L37.8686 33.0529L37.8166 33.105L37.7658 33.1571L37.6616 33.2091V33.3133H37.5575L37.5067 33.3654L37.4026 33.4175L37.3505 33.4696L37.2997 33.5216L37.2476 33.5724L37.1435 33.6245L37.0914 33.6766L37.0406 33.7286L36.9365 33.7807L36.8844 33.8849V33.937H37.1435L37.2997 33.8849L37.6096 33.7807L37.7137 33.7286L37.9728 33.6766L38.0756 33.6245L38.284 33.5724L38.3868 33.5216L38.6459 33.4696L38.7501 33.4175L38.8529 33.3654L39.112 33.3133L39.2161 33.2612L39.4752 33.2091L39.578 33.1571L39.785 33.105L39.9413 33.0529L40.1483 33.0008L40.3032 32.9487L40.4074 32.8966L40.6665 32.8446L40.7693 32.7925L41.0284 32.7404L41.1846 32.6896L41.3916 32.6376L41.5465 32.5855L41.7535 32.5334L41.9098 32.4813L42.0647 32.4292L42.3238 32.3771L42.4279 32.3251L42.687 32.273L42.8419 32.2209L43.101 32.1688L43.2052 32.1167L43.4629 32.0646L43.6713 32.0126L43.7741 31.9605L44.0332 31.9084L44.1894 31.8563L44.4485 31.8056L44.6034 31.7535L44.8625 31.7014L45.0174 31.6493L45.1737 31.5972L45.4314 31.5451L45.5877 31.4931L45.8988 31.441L46.0537 31.3889L46.3128 31.3368L46.4677 31.2847L46.7268 31.2326L46.9338 31.1806L47.0901 31.1285L47.4012 31.0764L47.5562 31.0243L47.8673 30.9736L48.0222 30.9215L48.3334 30.8694L48.4883 30.8173L48.7995 30.7652L48.9544 30.7131L49.1614 30.6611L49.4726 30.609L49.6795 30.5569L49.9907 30.5048L50.1456 30.4527L50.4568 30.4006L50.6638 30.3486L50.975 30.2965L51.389 30.1923L51.7522 30.1402L51.9592 30.0895L52.3225 30.0374L52.4774 29.9853L52.8393 29.9332L53.0476 29.8811L53.3067 29.8291L53.6686 29.777L53.8756 29.7249L54.2388 29.6728L54.4979 29.6207L54.8598 29.5686L55.1189 29.5166L55.5329 29.4645L55.7413 29.4124L56.0003 29.3603L56.4143 29.3082L56.6213 29.2561L57.0874 29.2054L57.3465 29.1533L57.8126 29.1012L58.0717 29.0491L58.5377 28.9971L58.8489 28.945L59.108 28.8929L59.6261 28.8408L59.9373 28.7887L60.4555 28.7366L60.7146 28.6846L61.3355 28.6325L61.6467 28.5804L62.2156 28.5283L62.5789 28.4762L62.89 28.4255L63.6152 28.3734L63.9771 28.3213L64.6515 28.2692L65.0655 28.2171L65.8935 28.1651L66.3088 28.113L66.7749 28.0609L67.7592 28.0088L68.2773 27.9567L69.3137 27.9046L69.9867 27.8526L71.5412 27.8005L72.6804 27.7484H77.8607L78.9477 27.8005L80.5022 27.8526L81.1246 27.9046L82.2116 27.9567L82.6777 28.0088L83.5591 28.0609L84.3871 28.1651L85.0615 28.2171L85.4234 28.2692L86.0458 28.3213L86.3556 28.3734L86.9259 28.4255L87.237 28.4762L87.5989 28.5283L88.0663 28.5804L88.3241 28.6325L88.7915 28.6846L89.0492 28.7366L89.5167 28.7887L89.7757 28.8408L90.2418 28.8929L90.4488 28.945L90.7079 28.9971L91.1219 29.0491L91.3289 29.1012L91.6922 29.1533L91.8991 29.2054L92.3131 29.2561L92.5201 29.3082L92.8834 29.3603L93.2974 29.4645L93.6086 29.5166L93.8155 29.5686L94.1788 29.6207L94.3337 29.6728L94.6449 29.7249L94.8519 29.777L95.163 29.8291L95.318 29.8811L95.5249 29.9332L95.8361 29.9853L95.991 30.0374L96.3022 30.0895L96.4571 30.1402L96.7162 30.1923L96.8724 30.2444L97.0794 30.2965L97.3385 30.3486L97.4934 30.4006L97.8046 30.4527L97.9088 30.5048L98.2186 30.5569L98.3748 30.609L98.6339 30.6611L98.9438 30.7652L99.2028 30.8173L99.307 30.8694L99.5661 30.9215L99.721 30.9736L99.9801 31.0243L100.136 31.0764L100.394 31.1285L100.498 31.1806L100.653 31.2326L100.861 31.2847L101.016 31.3368H101.378V31.2326H101.482L101.535 31.1285L101.587 31.0764L101.637 31.0243L101.742 30.9736L101.846 30.8694L101.896 30.8173L102.053 30.6611L102.103 30.609L102.312 30.4006L102.363 30.3486L102.83 29.8811L102.881 29.8291L103.089 29.6207L103.14 29.5686L103.296 29.4124L103.347 29.3603H103.71V29.3082L103.658 29.2561L103.555 29.2054L103.451 29.1533L103.14 29.1012L102.985 29.0491L102.726 28.9971L102.622 28.945L102.363 28.8929L102.053 28.7887L101.846 28.7366L101.689 28.6846L101.43 28.6325L101.275 28.5804L101.016 28.5283L100.861 28.4762L100.55 28.4241L100.446 28.3734L100.291 28.3213L99.9801 28.2692L99.8252 28.2171L99.5661 28.1651L99.4098 28.113L99.1 28.0609L98.9438 28.0088L98.7368 27.9567L98.4777 27.9046L98.3228 27.8526L98.0116 27.8005L97.8567 27.7484L97.4934 27.6963L97.3385 27.6442L97.0274 27.5921L96.8204 27.5401L96.6134 27.4893L96.3022 27.4372L96.0952 27.3852L95.784 27.3331L95.577 27.281L95.2151 27.2289L95.0068 27.1768L94.6449 27.1247L94.4379 27.0727L94.1788 27.0206L93.8155 26.9685L93.5565 26.9164L93.1425 26.8643L92.9355 26.8122L92.4694 26.7602L92.2103 26.7081L91.795 26.656L91.4851 26.6052L91.2261 26.5532L90.76 26.5011L90.4488 26.449L89.9307 26.3969L89.6195 26.3448L89.0492 26.2927L88.6873 26.2407L88.2733 26.1886L87.7031 26.1365L87.2891 26.0844L86.5119 26.0323L86.0965 25.9802L85.1644 25.9282L84.6462 25.8761L83.3521 25.824L82.5749 25.7732L81.5386 25.7212H76.1513L75.0629 25.7732Z" fill="white" stroke="white" stroke-width="0.0021008"/>
<path d="M73.6125 15.008L73.4576 15.0601L73.3014 15.1122L73.1465 15.1643L73.0944 15.2164L72.9395 15.2671L72.8353 15.3192L72.6804 15.3713L72.6283 15.4234L72.5255 15.4754L72.4213 15.5275L72.3692 15.5796L72.2664 15.6317L72.058 15.7359L72.0073 15.7879L71.9031 15.84L71.851 15.8921L71.7402 15.9429L71.8003 15.7879L71.851 15.6317L71.9031 15.4234V15.1643H69.2616L69.2095 15.4234L69.1574 15.6317L69.1053 15.7879L69.0546 16.1004L69.0025 16.2554L68.9504 16.5679L68.8983 16.672L68.8462 16.9845L68.7955 17.1394L68.7434 17.4519L68.6913 17.6082L68.6392 17.8165L68.5885 18.0756L68.5364 18.2319L68.4843 18.5444L68.4322 18.7006L68.3802 19.0118L68.3294 19.168L68.2773 19.4805L68.2252 19.6354L68.1732 19.7917L68.1211 20.1042L68.0703 20.2604L68.0182 20.5716L67.9662 20.7278L67.9141 21.0403L67.8633 21.1966L67.8112 21.4557L67.7071 21.8723L67.655 22.1328L67.6029 22.2877L67.5522 22.6002L67.5001 22.7564L67.448 23.0689V23.1718H70.0896L70.1416 23.0168L70.1937 22.7564L70.2458 22.6002L70.2979 22.2877L70.3486 22.1328L70.4007 21.8203L70.4528 21.664L70.5049 21.3528L70.5556 21.1966L70.6077 21.0403L70.6598 20.7278L70.7119 20.5716L70.764 20.2604L70.8161 20.1042L70.8668 19.7917L70.9189 19.6354L70.971 19.3243L71.0231 19.168L71.0738 19.0118L71.1259 18.7006L71.178 18.5444L71.2301 18.2319L71.2821 18.0756L71.3329 17.7644L71.385 17.6082L71.4371 17.5561L71.5412 17.504L71.644 17.4519L71.7482 17.3999L71.851 17.3478L72.0073 17.2957L72.1101 17.2436L72.2664 17.1915L72.3692 17.1394H73.3535L73.4055 17.1915L73.5097 17.2436H73.6125V17.3478L73.6646 17.3999L73.7167 17.6603V18.0235L73.6646 18.4402L73.6125 18.6485L73.5605 18.9597L73.5097 19.168L73.4576 19.3243L73.4055 19.6354L73.3535 19.7917L73.3014 20.1042L73.2506 20.2604L73.1985 20.5716L73.1465 20.6758L73.0944 21.0403L73.0423 21.1445L72.9915 21.3528L72.9395 21.6119L72.8874 21.8203L72.8353 22.0807L72.7832 22.2877L72.7325 22.5481L72.6804 22.7043L72.6283 22.9127V23.1718H75.2699L75.3219 22.9648L75.374 22.8085L75.4261 22.6002L75.4782 22.3398L75.5289 22.1848L75.581 21.8723L75.6331 21.7161L75.6852 21.4049L75.7373 21.2487L75.788 20.9362L75.8401 20.7799L75.8922 20.5716L75.9443 20.3125L75.995 20.1042L76.0471 19.8438L76.0992 19.6875L76.1513 19.3764L76.2034 19.2201L76.2541 18.9076L76.3062 18.7527L76.3583 18.5964L76.4103 18.2839L76.4624 18.1277L76.5132 17.8165L76.5653 17.6603L76.6173 17.5561L76.7215 17.504L76.8243 17.4519L76.9285 17.3999L77.0313 17.3478L77.1876 17.2957L77.2904 17.2436L77.4467 17.1915L77.5495 17.1394H78.5337L78.5858 17.1915H78.7407V17.2957L78.8449 17.3999L78.897 17.5561V18.0756L78.8449 18.4923L78.7928 18.7006L78.7407 18.8555L78.69 19.168L78.6379 19.3243L78.5858 19.6354L78.5337 19.7917L78.4817 20.1042L78.4309 20.2604L78.3788 20.5716L78.2747 20.8841L78.2226 21.1966L78.1718 21.3528L78.1197 21.664L78.0677 21.8203L78.0156 22.1328L77.9648 22.2877L77.9128 22.6002L77.8086 22.9127V23.1718H80.4502L80.5022 22.9648L80.5543 22.8085L80.6064 22.496L80.6571 22.3398L80.7092 22.1848L80.7613 21.8723L80.8134 21.7161L80.8655 21.4049L80.9176 21.2487L80.9683 20.9362L81.0204 20.7799L81.0725 20.4688L81.1246 20.3125L81.1753 20.1563L81.2274 19.8438L81.2795 19.6875L81.3316 19.3764L81.3836 19.2201L81.4344 18.9076L81.4865 18.7527L81.5386 18.5444L81.5906 18.2839L81.6427 18.1277L81.6935 17.8165L81.7456 17.5561V16.4637L81.6935 16.3074L81.6427 16.1004L81.4865 15.7879L81.4344 15.7359L81.3836 15.6317L81.1753 15.4234L81.1246 15.3713L81.0204 15.3192L80.9683 15.2671L80.8655 15.2164L80.6571 15.1122L80.3473 15.008L79.9333 14.9559H79.2589L78.8449 15.008L78.69 15.0601L78.4817 15.1122L78.3788 15.1643L78.2747 15.2164L78.1197 15.2671L78.0677 15.3192L77.9128 15.3713L77.7044 15.4754L77.6016 15.5275L77.5495 15.5796L77.4467 15.6317L77.2383 15.7359L77.1876 15.7879L77.0834 15.84L77.0313 15.8921L76.9285 15.9442L76.8243 16.0484L76.7215 16.1004L76.6694 16.1525L76.5653 16.2033L76.5132 16.2554L76.4611 16.1525L76.4103 16.1004L76.3583 15.9442L76.3062 15.84L76.2541 15.7879L76.2034 15.7359L76.1513 15.6317L75.995 15.4754L75.9443 15.4234L75.8922 15.3713L75.788 15.3192L75.7373 15.2671L75.6331 15.2164L75.5289 15.1643L75.4261 15.1122L75.2699 15.0601L75.1149 15.008L74.7009 14.9559H74.0786L73.6125 15.008Z" fill="white" stroke="white" stroke-width="0.0021008"/>
<path d="M25.1777 21.1966L23.2466 21.1926L23.8302 18.5964H25.1777C25.971 18.5964 27.042 18.7393 27.042 19.4805V19.8438C27.042 20.6504 25.9843 21.1966 25.1777 21.1966ZM24.753 14.59L26.1619 14.5914C26.7081 14.5914 27.3532 14.7917 27.3532 15.3192V15.6317C27.3532 16.3382 26.4464 16.7762 25.6959 16.7762L24.2749 16.7709L24.753 14.59ZM20.1016 23.121H25.0214C27.2891 23.121 29.7877 22.0727 29.7877 19.8959V19.4805C29.7877 18.3721 28.9691 17.8165 28.0783 17.6082C28.1291 17.5388 29.1494 17.1341 29.5153 16.7628C29.8986 16.3756 30.2017 15.9121 30.2017 15.1643V15.008C30.2017 13.4135 28.5177 12.667 26.9392 12.667L22.5134 12.675L20.1016 23.121Z" fill="white" stroke="white" stroke-width="0.0021008"/>
<path d="M93.1425 22.3918C93.0503 22.4853 93.2346 22.2997 93.1425 22.3918V22.3918ZM94.2816 17.4519L94.2295 17.7644L94.1788 17.9193L94.1267 18.2318L94.0746 18.3881L94.0225 18.5964L93.9718 18.8555L93.9197 19.0118L93.8676 19.3243L93.8155 19.4805L93.7635 19.7917L93.7127 19.9479L93.6606 20.1563L93.6085 20.4167L93.5565 20.5716V20.9362H93.4536L93.2453 21.0403L93.1945 21.0924L92.9862 21.1445L92.9355 21.1966L92.7792 21.2487L92.6764 21.3008L92.5201 21.3528H91.588L91.4851 21.3008L91.2768 21.1966L91.2261 21.1445L91.1219 21.0403H91.0177V20.9362L90.967 20.832L90.9149 20.6237L90.8628 20.4688V19.6875L90.9149 19.4284L90.967 19.0638L91.0177 18.9076L91.0698 18.7006L91.1219 18.5964L91.174 18.4402L91.2261 18.336L91.2768 18.2318L91.4331 17.9193L91.4851 17.8686L91.5359 17.7644L91.7442 17.5561L91.795 17.504L91.9512 17.3478L92.0541 17.2957L92.1061 17.2436L92.2103 17.1915L92.3131 17.1394L92.4173 17.0873L92.5201 17.0353L92.6243 16.9845L93.1425 16.8803H93.5044L94.0225 16.9845L94.1788 17.0353L94.2816 17.0873L94.3925 17.0887L94.3337 17.2957L94.2816 17.4519ZM95.4729 12.3037L95.4221 12.512L95.37 12.7711L95.318 12.9274L95.2659 13.2399L95.2138 13.3961L95.163 13.7073L95.111 13.8635L95.0589 14.176L95.0068 14.3323L94.9547 14.4872L94.904 14.7997L94.8519 14.9559L94.7998 15.2671L94.7985 15.4314L94.6449 15.3713L94.5407 15.3192L94.4379 15.2671L94.2816 15.2163L94.1788 15.1643L94.0225 15.1122L93.8155 15.0601L93.6606 15.008L93.0904 14.9559H92.3652L91.8991 15.008L91.4851 15.1122L91.2768 15.2163L91.1219 15.2671L91.0191 15.3192L90.8628 15.3713L90.8107 15.4233L90.7079 15.4754L90.6558 15.5275L90.5517 15.5796L90.4488 15.6317L90.3967 15.6838L90.2926 15.7358L90.2418 15.7879L90.1377 15.8921L90.0335 15.9442L89.9827 15.9963L89.8786 16.1004L89.8265 16.1512L89.7757 16.2033L89.5674 16.4116L89.5167 16.4637L89.4125 16.5678L89.3604 16.672L89.3083 16.7241L89.2576 16.7762L89.2055 16.8283L89.1534 16.9324L89.1013 16.9845L89.0492 17.0873L88.9985 17.1394L88.9464 17.2436L88.8943 17.2957L88.8423 17.3998L88.7915 17.504L88.6353 17.8165L88.5832 17.9714L88.5324 18.0235L88.4803 18.1798L88.3762 18.3881L88.3241 18.5964L88.2733 18.7527L88.2213 19.0118L88.1692 19.168L88.1171 19.6354L88.065 20V20.9362L88.1171 21.2487L88.1692 21.5598L88.2733 21.8723L88.3241 22.0286L88.4282 22.2369L88.4803 22.2877L88.5324 22.3918L88.5832 22.4439L88.6353 22.5481L88.7915 22.7043L88.8423 22.7564L88.9464 22.8606L89.0492 22.9127L89.1534 23.0168L89.2576 23.0689L89.3604 23.121L89.4125 23.1717L89.5674 23.2238L89.6716 23.2759L89.8265 23.328L90.1377 23.3801L90.5517 23.4322H90.7079L91.2261 23.3801L91.5359 23.328L91.6401 23.2759L91.795 23.2238L91.9512 23.1717L92.0541 23.121L92.1582 23.0689L92.2611 23.0168L92.3652 22.9647L92.4173 22.9127L92.5722 22.8606L92.6764 22.7564L92.7792 22.7043L92.8313 22.6522L92.9355 22.6002L93.0383 22.5481L93.1505 22.4987L93.0904 22.6002L93.0383 22.9127L92.9862 23.0689V23.1717H95.6291L95.6812 23.0689L95.7319 22.9127L95.784 22.6002L95.8361 22.4439L95.8882 22.1327L95.9403 21.9765L95.991 21.7682L96.0431 21.5077L96.0952 21.3528L96.1473 21.0403L96.198 20.8841L96.2501 20.5716L96.3022 20.4167L96.3543 20.1042L96.4064 19.9479L96.4571 19.7917L96.5092 19.4805L96.5613 19.3243L96.6134 19.0118L96.6654 18.8555L96.7162 18.5964L96.7683 18.3881L96.8204 18.1277L96.8724 17.9193L96.9245 17.7644L96.9753 17.4519L97.0274 17.2957L97.0794 16.9845L97.1315 16.8283L97.1823 16.5158L97.2344 16.3595L97.2864 16.0483L97.3906 15.7358L97.4413 15.4233L97.4934 15.2671L97.5455 14.9559L97.5976 14.7997L97.6497 14.4872L97.7004 14.3323L97.7525 14.176L97.8046 13.8635L97.8567 13.7073L97.9088 13.3961L97.9595 13.2399L98.0116 12.9274L98.0637 12.7711L98.1158 12.4599L98.1678 12.3037V12.1474H95.5249L95.4729 12.3037Z" fill="white" stroke="white" stroke-width="0.0021008"/>
<path d="M51.3382 18.4402L51.3289 18.5003L51.2861 18.4402H51.3382ZM50.0428 12.3037L49.9907 12.4599L49.9386 12.7711L49.8866 12.9274L49.8358 13.1357L49.7837 13.3961L49.7316 13.6031L49.6796 13.8635L49.6275 14.0198L49.5767 14.3323L49.5246 14.4872L49.4726 14.7997L49.4205 14.9559L49.3697 15.1643L49.3176 15.4754L49.2656 15.6317L49.2135 15.8921L49.1614 16.1004L49.1107 16.3595L49.0586 16.5678L49.0065 16.8283L48.9544 17.0353L48.9023 17.1915L48.8516 17.504L48.7995 17.6603L48.7474 17.9714L48.6953 18.1277L48.6432 18.4402L48.5925 18.5964L48.5404 18.9076L48.4362 19.2201L48.3842 19.5326L48.3334 19.6875L48.2813 20L48.2292 20.1563L48.1772 20.4688L48.1264 20.6237L48.0743 20.7799L48.0222 21.0924L47.9702 21.2487L47.9181 21.5598L47.8673 21.7161L47.8152 22.0286L47.7632 22.1848L47.7111 22.496L47.659 22.6522L47.6082 22.8085V23.1717H50.1977L50.2498 23.121L50.3019 22.8085L50.3526 22.6522L50.4047 22.4439L50.4568 22.1848L50.5089 22.0286L50.561 21.7682L50.6131 21.5598L50.6638 21.3008L50.7159 21.0924L50.768 20.832L50.8201 20.6758L50.8708 20.6237L50.975 20.5195L51.0791 20.4688V20.3646H51.182V20.2604H51.2861L51.3382 20.2083L51.389 20.1563L51.4931 20.0521L51.596 20L51.8043 19.7917L51.855 19.8438L51.9071 19.8958L51.9592 20.0521L52.0634 20.2604L52.1141 20.4167L52.1662 20.4688L52.2183 20.6237L52.2704 20.7278L52.3225 20.8841L52.3732 20.9362L52.4253 21.0924L52.5295 21.3008L52.5802 21.4557L52.6323 21.5598L52.6844 21.7161L52.7365 21.7682L52.7885 21.9244L52.8393 22.0286L52.8914 22.1848L52.9435 22.2369L52.9955 22.3397L53.0476 22.496L53.0984 22.6002L53.1505 22.7564L53.3067 23.0689L53.3575 23.1717H56.1032V23.0168L56.0511 22.9127L56.0004 22.8085L55.9483 22.7043L55.8962 22.5481L55.8441 22.496L55.792 22.3397L55.7413 22.2369L55.6371 22.0286L55.585 21.9765L55.5329 21.8203L55.4822 21.7161L55.4301 21.5598L55.378 21.5078L55.3259 21.3528L55.2752 21.2487L55.1189 20.9362L55.0669 20.7799L55.0161 20.7278L54.964 20.5716L54.9119 20.5208L54.8599 20.3646L54.8078 20.2604L54.757 20.2083L54.7049 20.0521L54.6529 19.9479L54.6008 19.7917L54.5487 19.7396L54.4979 19.5847L54.3417 19.2722L54.2909 19.2201L54.2389 19.0638L54.1868 18.9597L54.1347 18.8034L54.0826 18.7527V18.6485L54.2389 18.4923L54.3417 18.4402L54.4979 18.2839L54.5487 18.2318L54.757 18.0235L54.8078 17.9714L54.8599 17.9193L54.9119 17.8686L54.964 17.8165L55.0669 17.7644V17.6603H55.171V17.5561H55.2752L55.3259 17.504V17.3998H55.4301L55.4822 17.3478L55.5329 17.2957L55.7413 17.0873L55.792 17.0353L55.8441 16.9845L56.0004 16.8283L56.0511 16.7762L56.1553 16.7241L56.2594 16.6199L56.3102 16.5678L56.5185 16.3595L56.5693 16.3074L56.7255 16.1512L56.8283 16.1004V15.9963H56.9325L56.9846 15.9442L57.0353 15.8921L57.1916 15.7358V15.6317H57.2944L57.4507 15.4754L57.5535 15.4233V15.3192H57.6577V15.1643H54.6529L54.3417 15.4754L54.2909 15.5275L54.0826 15.7358L54.0319 15.7879L53.8235 15.9963L53.7728 16.0483L53.7207 16.1004L53.6686 16.1512L53.6165 16.2033L53.5658 16.2553L53.3575 16.4637L53.3067 16.5158L53.0984 16.7241L53.0476 16.7762L52.5802 17.2436L52.5295 17.2957L52.3732 17.4519L52.3225 17.504L52.1141 17.7123L52.0634 17.7644L52.0113 17.8165L51.9071 17.8686L51.855 17.9193L51.8043 17.9714L51.6481 18.1277V18.2318H51.5452L51.389 18.3881L51.3382 18.4402L51.389 18.1277L51.441 17.9714L51.4931 17.6603L51.5452 17.504L51.596 17.1915L51.6481 17.0353L51.7001 16.7241L51.8043 16.4116L51.855 16.1004L51.9071 15.9442L51.9592 15.6317L52.0113 15.4754L52.0634 15.1643L52.1141 15.008L52.1662 14.7997L52.2183 14.5393L52.2704 14.3323L52.3225 14.0718L52.3732 13.8635L52.4253 13.6031L52.4774 13.3961L52.5295 13.1357L52.5802 12.9274L52.6323 12.7711L52.6844 12.4599L52.7365 12.3037V12.1474H50.0949L50.0428 12.3037Z" fill="white"/>
<path d="M51.3382 18.4402L51.3289 18.5003L51.2861 18.4402H51.3382ZM51.3382 18.4402L51.389 18.3881L51.5452 18.2318H51.6481V18.1277L51.8043 17.9714L51.855 17.9193L51.9071 17.8686L52.0113 17.8165L52.0634 17.7644L52.1141 17.7123L52.3225 17.504L52.3732 17.4519L52.5295 17.2957L52.5802 17.2436L53.0476 16.7762L53.0984 16.7241L53.3067 16.5158L53.3575 16.4637L53.5658 16.2553L53.6165 16.2033L53.6686 16.1512L53.7207 16.1004L53.7728 16.0483L53.8235 15.9963L54.0319 15.7879L54.0826 15.7358L54.2909 15.5275L54.3417 15.4754L54.6529 15.1643H57.6577V15.3192H57.5535V15.4233L57.4507 15.4754L57.2944 15.6317H57.1916V15.7358L57.0353 15.8921L56.9846 15.9442L56.9325 15.9963H56.8283V16.1004L56.7255 16.1512L56.5693 16.3074L56.5185 16.3595L56.3102 16.5678L56.2594 16.6199L56.1553 16.7241L56.0511 16.7762L56.0004 16.8283L55.8441 16.9845L55.792 17.0353L55.7413 17.0873L55.5329 17.2957L55.4822 17.3478L55.4301 17.3998H55.3259V17.504L55.2752 17.5561H55.171V17.6603H55.0669V17.7644L54.964 17.8165L54.9119 17.8686L54.8599 17.9193L54.8078 17.9714L54.757 18.0235L54.5487 18.2318L54.4979 18.2839L54.3417 18.4402L54.2389 18.4923L54.0826 18.6485V18.7527L54.1347 18.8034L54.1868 18.9597L54.2389 19.0638L54.2909 19.2201L54.3417 19.2722L54.4979 19.5847L54.5487 19.7396L54.6008 19.7917L54.6529 19.9479L54.7049 20.0521L54.757 20.2083L54.8078 20.2604L54.8599 20.3646L54.9119 20.5208L54.964 20.5716L55.0161 20.7278L55.0669 20.7799L55.1189 20.9362L55.2752 21.2487L55.3259 21.3528L55.378 21.5078L55.4301 21.5598L55.4822 21.7161L55.5329 21.8203L55.585 21.9765L55.6371 22.0286L55.7413 22.2369L55.792 22.3397L55.8441 22.496L55.8962 22.5481L55.9483 22.7043L56.0004 22.8085L56.0511 22.9127L56.1032 23.0168V23.1717H53.3575L53.3067 23.0689L53.1505 22.7564L53.0984 22.6002L53.0476 22.496L52.9955 22.3397L52.9435 22.2369L52.8914 22.1848L52.8393 22.0286L52.7885 21.9244L52.7365 21.7682L52.6844 21.7161L52.6323 21.5598L52.5802 21.4557L52.5295 21.3008L52.4253 21.0924L52.3732 20.9362L52.3225 20.8841L52.2704 20.7278L52.2183 20.6237L52.1662 20.4688L52.1141 20.4167L52.0634 20.2604L51.9592 20.0521L51.9071 19.8958L51.855 19.8438L51.8043 19.7917L51.596 20L51.4931 20.0521L51.389 20.1563L51.3382 20.2083L51.2861 20.2604H51.182V20.3646H51.0791V20.4688L50.975 20.5195L50.8708 20.6237L50.8201 20.6758L50.768 20.832L50.7159 21.0924L50.6638 21.3008L50.6131 21.5598L50.561 21.7682L50.5089 22.0286L50.4568 22.1848L50.4047 22.4439L50.3526 22.6522L50.3019 22.8085L50.2498 23.121L50.1977 23.1717H47.6082V22.8085L47.659 22.6522L47.7111 22.496L47.7632 22.1848L47.8152 22.0286L47.8673 21.7161L47.9181 21.5598L47.9702 21.2487L48.0222 21.0924L48.0743 20.7799L48.1264 20.6237L48.1772 20.4688L48.2292 20.1563L48.2813 20L48.3334 19.6875L48.3842 19.5326L48.4362 19.2201L48.5404 18.9076L48.5925 18.5964L48.6432 18.4402L48.6953 18.1277L48.7474 17.9714L48.7995 17.6603L48.8516 17.504L48.9023 17.1915L48.9544 17.0353L49.0065 16.8283L49.0586 16.5678L49.1107 16.3595L49.1614 16.1004L49.2135 15.8921L49.2656 15.6317L49.3176 15.4754L49.3697 15.1643L49.4205 14.9559L49.4726 14.7997L49.5246 14.4872L49.5767 14.3323L49.6275 14.0198L49.6796 13.8635L49.7316 13.6031L49.7837 13.3961L49.8358 13.1357L49.8866 12.9274L49.9386 12.7711L49.9907 12.4599L50.0428 12.3037L50.0949 12.1474H52.7365V12.3037L52.6844 12.4599L52.6323 12.7711L52.5802 12.9274L52.5295 13.1357L52.4774 13.3961L52.4253 13.6031L52.3732 13.8635L52.3225 14.0718L52.2704 14.3323L52.2183 14.5393L52.1662 14.7997L52.1141 15.008L52.0634 15.1643L52.0113 15.4754L51.9592 15.6317L51.9071 15.9442L51.855 16.1004L51.8043 16.4116L51.7001 16.7241L51.6481 17.0353L51.596 17.1915L51.5452 17.504L51.4931 17.6603L51.441 17.9714L51.389 18.1277L51.3382 18.4402Z" stroke="white" stroke-width="0.0021008"/>
<mask id="mask1_5_218" style="mask-type:luminance" maskUnits="userSpaceOnUse" x="40" y="0" width="12" height="12">
<path d="M40.5089 0H51.1071V11.0203H40.5089V0Z" fill="white"/>
</mask>
<g mask="url(#mask1_5_218)">
<path d="M46.0016 0.082805L45.7426 0.134888L45.4314 0.186972L45.2765 0.239055L45.0695 0.291138L44.9146 0.343222L44.7583 0.39397L44.6555 0.446053L44.4992 0.498136L44.3443 0.55022L44.2922 0.602303L44.1373 0.654386L44.0852 0.70647L43.9303 0.758553L43.8782 0.810636L43.722 0.86272L43.6713 0.914803L43.5671 0.966886L43.515 1.01897L43.4122 1.07105L43.308 1.12314L43.2559 1.17522L43.1531 1.2273L43.101 1.27805L43.0489 1.33013L42.9461 1.38222L42.7898 1.53847L42.687 1.59055V1.69472H42.5828V1.79888H42.48L42.4279 1.90305L42.3238 1.95513V2.0593H42.2209L42.1688 2.16213L42.0126 2.31838L41.9618 2.42255L41.8577 2.52672V2.63088H41.7535L41.7028 2.73505L41.6507 2.78713L41.5465 2.99547L41.4958 3.04621L41.3395 3.35871L41.2874 3.4108L41.2367 3.56705L41.1846 3.61913L41.1325 3.77538L41.0804 3.82746L41.0284 3.98238L40.9776 4.08654L40.9255 4.19071L40.8734 4.39904L40.8214 4.50321L40.7693 4.76229L40.7185 4.86646L40.6664 5.17896L40.6144 5.33521L40.5623 5.59563L40.5102 6.11512V7.57079L40.5623 8.03954L40.6144 8.19579L40.6664 8.3507L40.7185 8.55903L40.7693 8.6632L40.8214 8.81945L40.9776 9.13195L41.0284 9.23478L41.0804 9.28687L41.1846 9.4952L41.2367 9.54728L41.2874 9.59937L41.3395 9.65145L41.3916 9.75562H41.4958V9.85978L41.5986 9.91187L41.8577 10.1709L41.9618 10.223L42.0647 10.2751L42.1168 10.3272L42.2209 10.3793L42.2717 10.4314L42.3758 10.4834L42.4787 10.5355L42.687 10.6397L42.9968 10.7439L43.1531 10.7959L43.3601 10.848L43.5671 10.8988L43.7741 10.9509L44.3443 11.0029H45.7426L46.3128 10.9509L46.4677 10.8988L46.7268 10.848L46.9338 10.7959L47.0901 10.7439L47.2971 10.6918L47.452 10.6397L47.6082 10.5876L47.711 10.5355L47.8673 10.4834L47.9701 10.4314L48.0743 10.3793L48.2292 10.3272L48.3334 10.2751L48.4883 10.223L48.5925 10.1709L48.7474 10.1189L48.7995 9.85978L48.8515 9.70353L48.9023 9.39103L48.9544 9.28687L49.0065 8.9757L49.0585 8.81945L49.1106 8.61112L49.1614 8.40278L49.2135 8.19579L49.2655 7.93537L49.3176 7.77912V7.5187H48.9023L48.8515 7.57079L48.7474 7.67495L48.6445 7.72704L48.5925 7.77912L48.4883 7.8312L48.4362 7.88329L48.3334 7.93537L48.2813 7.98745L48.1771 8.03954L48.1264 8.09162L47.918 8.19579L47.8673 8.24787L47.711 8.29862L47.659 8.3507L47.504 8.40278L47.4012 8.45487L47.1929 8.55903L47.0901 8.61112L46.8831 8.6632L46.7789 8.71528L46.4677 8.76737L46.2607 8.81945H44.9653L44.8104 8.76737L44.6034 8.71528L44.4992 8.6632L44.3964 8.61112L44.2922 8.55903L44.2402 8.50695L44.1373 8.45487L43.8262 8.1437L43.722 7.93537L43.6713 7.8312L43.6192 7.72704L43.5671 7.5187L43.515 7.36379L43.4629 6.63462V6.47971L43.515 5.59563L43.5671 5.38729L43.6192 5.07479L43.6713 4.91854L43.722 4.71154L43.7741 4.60738L43.8262 4.45113L43.9303 4.24279L43.9811 4.08654L44.0332 4.03446L44.0852 3.93029L44.1373 3.87955L44.1894 3.7233L44.2402 3.67121L44.2922 3.61913L44.3443 3.51496L44.4485 3.4108L44.4992 3.35871L44.5513 3.25455L44.6555 3.15038L44.7062 3.0983L44.7583 3.04621L44.8104 2.99547L44.8625 2.94338L44.9653 2.8913V2.78713H45.0695L45.1216 2.73505L45.2244 2.68297L45.2765 2.63088L45.3807 2.5788L45.4327 2.52672L45.5877 2.47463L45.6918 2.42255L45.7946 2.37047L45.9496 2.31838L46.0537 2.2663L46.3649 2.21422L46.6747 2.16213H47.2971L47.6082 2.21422L47.918 2.2663L48.0743 2.31838L48.2292 2.37047L48.3334 2.42255L48.4362 2.47463L48.5925 2.52672L48.6445 2.5788L48.7474 2.63088L48.7995 2.68297L48.9023 2.73505L48.9544 2.78713L49.0585 2.83922L49.1106 2.8913L49.1614 2.94338H49.2655V3.04621L49.3697 3.0983L49.4204 3.15038L49.5246 3.25455H49.6274V3.35871L49.7837 3.51496H50.1977L50.2498 3.46288L50.3019 3.15038L50.3539 2.99547L50.4047 2.78713L50.4568 2.5788L50.5089 2.42255L50.5609 2.11138L50.613 1.95513L50.6638 1.69472L50.7159 1.53847L50.7679 1.2273L50.82 1.07105V0.86272L50.7159 0.810636L50.613 0.758553L50.4047 0.654386L50.2498 0.602303L50.1456 0.55022L50.0428 0.498136L49.8865 0.446053L49.7837 0.39397L49.5767 0.343222L49.4204 0.291138L49.0065 0.186972L48.6445 0.134888L48.3841 0.082805L48.1264 0.0307217H46.2607L46.0016 0.082805Z" fill="white"/>
</g>
<mask id="mask2_5_218" style="mask-type:luminance" maskUnits="userSpaceOnUse" x="40" y="0" width="12" height="12">
<path d="M40.167 0H51.1072V11.0203H40.167V0Z" fill="white"/>
</mask>
<g mask="url(#mask2_5_218)">
<path d="M46.0017 0.0828051L45.7426 0.134888L45.4315 0.186972L45.2766 0.239055L45.0696 0.291138L44.9146 0.343222L44.7584 0.39397L44.6556 0.446053L44.4993 0.498136L44.3444 0.55022L44.2923 0.602303L44.1374 0.654387L44.0853 0.70647L43.9304 0.758553L43.8783 0.810637L43.7221 0.86272L43.6713 0.914803L43.5671 0.966887L43.5151 1.01897L43.4122 1.07105L43.3081 1.12314L43.256 1.17522L43.1532 1.2273L43.1011 1.27805L43.049 1.33013L42.9462 1.38222L42.7899 1.53847L42.6871 1.59055V1.69472H42.5829V1.79888H42.4801L42.428 1.90305L42.3238 1.95513V2.0593H42.221L42.1689 2.16213L42.0127 2.31838L41.9619 2.42255L41.8577 2.52672V2.63088H41.7536L41.7028 2.73505L41.6507 2.78713L41.5466 2.99547L41.4958 3.04621L41.3396 3.35871L41.2875 3.4108L41.2368 3.56705L41.1847 3.61913L41.1326 3.77538L41.0805 3.82746L41.0284 3.98238L40.9777 4.08655L40.9256 4.19071L40.8735 4.39905L40.8214 4.50321L40.7693 4.76229L40.7186 4.86646L40.6665 5.17896L40.6144 5.33521L40.5623 5.59563L40.5103 6.11513V7.57079L40.5623 8.03954L40.6144 8.19579L40.6665 8.3507L40.7186 8.55904L40.7693 8.6632L40.8214 8.81945L40.9777 9.13195L41.0284 9.23479L41.0805 9.28687L41.1847 9.4952L41.2368 9.54729L41.2875 9.59937L41.3396 9.65145L41.3917 9.75562H41.4958V9.85979L41.5987 9.91187L41.8577 10.171L41.9619 10.223L42.0647 10.2751L42.1168 10.3272L42.221 10.3793L42.2717 10.4314L42.3759 10.4835L42.4787 10.5355L42.6871 10.6397L42.9969 10.7439L43.1532 10.7959L43.3601 10.848L43.5671 10.8988L43.7741 10.9509L44.3444 11.0029H45.7426L46.3129 10.9509L46.4678 10.8988L46.7269 10.848L46.9339 10.7959L47.0901 10.7439L47.2971 10.6918L47.452 10.6397L47.6083 10.5876L47.7111 10.5355L47.8674 10.4835L47.9702 10.4314L48.0744 10.3793L48.2293 10.3272L48.3334 10.2751L48.4884 10.223L48.5925 10.171L48.7474 10.1189L48.7995 9.85979L48.8516 9.70354L48.9024 9.39104L48.9544 9.28687L49.0065 8.9757L49.0586 8.81945L49.1107 8.61112L49.1614 8.40279L49.2135 8.19579L49.2656 7.93537L49.3177 7.77912V7.51871H48.9024L48.8516 7.57079L48.7474 7.67496L48.6446 7.72704L48.5925 7.77912L48.4884 7.83121L48.4363 7.88329L48.3334 7.93537L48.2814 7.98746L48.1772 8.03954L48.1264 8.09162L47.9181 8.19579L47.8674 8.24787L47.7111 8.29862L47.659 8.3507L47.5041 8.40279L47.4013 8.45487L47.193 8.55904L47.0901 8.61112L46.8831 8.6632L46.779 8.71529L46.4678 8.76737L46.2608 8.81945H44.9654L44.8105 8.76737L44.6035 8.71529L44.4993 8.6632L44.3965 8.61112L44.2923 8.55904L44.2402 8.50695L44.1374 8.45487L43.8262 8.14371L43.7221 7.93537L43.6713 7.83121L43.6192 7.72704L43.5671 7.51871L43.5151 7.36379L43.463 6.63462V6.47971L43.5151 5.59563L43.5671 5.38729L43.6192 5.07479L43.6713 4.91854L43.7221 4.71155L43.7741 4.60738L43.8262 4.45113L43.9304 4.2428L43.9811 4.08655L44.0332 4.03446L44.0853 3.9303L44.1374 3.87955L44.1895 3.7233L44.2402 3.67121L44.2923 3.61913L44.3444 3.51496L44.4486 3.4108L44.4993 3.35871L44.5514 3.25455L44.6556 3.15038L44.7063 3.0983L44.7584 3.04621L44.8105 2.99547L44.8626 2.94338L44.9654 2.8913V2.78713H45.0696L45.1216 2.73505L45.2245 2.68297L45.2766 2.63088L45.3807 2.5788L45.4328 2.52672L45.5877 2.47463L45.6919 2.42255L45.7947 2.37047L45.9496 2.31838L46.0538 2.2663L46.365 2.21422L46.6748 2.16213H47.2971L47.6083 2.21422L47.9181 2.2663L48.0744 2.31838L48.2293 2.37047L48.3334 2.42255L48.4363 2.47463L48.5925 2.52672L48.6446 2.5788L48.7474 2.63088L48.7995 2.68297L48.9024 2.73505L48.9544 2.78713L49.0586 2.83922L49.1107 2.8913L49.1614 2.94338H49.2656V3.04621L49.3698 3.0983L49.4205 3.15038L49.5247 3.25455H49.6275V3.35871L49.7838 3.51496H50.1978L50.2498 3.46288L50.3019 3.15038L50.354 2.99547L50.4048 2.78713L50.4568 2.5788L50.5089 2.42255L50.561 2.11138L50.6131 1.95513L50.6638 1.69472L50.7159 1.53847L50.768 1.2273L50.8201 1.07105V0.86272L50.7159 0.810637L50.6131 0.758553L50.4048 0.654387L50.2498 0.602303L50.1457 0.55022L50.0428 0.498136L49.8866 0.446053L49.7838 0.39397L49.5768 0.343222L49.4205 0.291138L49.0065 0.186972L48.6446 0.134888L48.3842 0.0828051L48.1264 0.0307217H46.2608L46.0017 0.0828051Z" stroke="white" stroke-width="0.0021008"/>
</g>
<mask id="mask3_5_218" style="mask-type:luminance" maskUnits="userSpaceOnUse" x="97" y="14" width="10" height="10">
<path d="M97.9447 14.781H106.923V23.6699H97.9447V14.781Z" fill="white"/>
</mask>
<g mask="url(#mask3_5_218)">
<path d="M101.068 17.9714L101.119 17.8686L101.171 17.7644L101.223 17.7124L101.275 17.6082L101.328 17.5561L101.378 17.4519L101.482 17.3478L101.535 17.2436L101.587 17.1915L101.637 17.1394L101.742 17.0874L101.794 17.0353L101.846 16.9845L101.949 16.9324L102.001 16.8804L102.156 16.8283L102.208 16.7762L102.415 16.7241L102.571 16.672H103.451L103.606 16.7241L103.762 16.7762L103.865 16.8283L103.917 16.8804L104.021 16.9324L104.072 16.9845L104.124 17.0874L104.176 17.1915L104.228 17.2436L104.28 17.504V18.1277L101.008 18.1264L101.068 17.9714ZM102.571 14.9559L102.103 15.008L101.949 15.0601L101.689 15.1122L101.535 15.1643L101.43 15.2164L101.223 15.2671L101.119 15.3192L100.964 15.3713L100.861 15.4234L100.653 15.5275L100.55 15.5796L100.498 15.6317L100.394 15.6838L100.291 15.7359L100.239 15.7879L100.136 15.84L100.084 15.8921L99.9801 15.9442L99.8759 16.0484L99.8252 16.1004L99.7731 16.1512L99.6689 16.2033V16.3074H99.5661V16.4116H99.4619L99.4098 16.5158L99.307 16.5679L99.2549 16.672L99.1507 16.7762L99.1 16.8804L99.0479 16.9324L98.9958 17.0353L98.9437 17.0874L98.893 17.1394L98.7888 17.3478L98.7367 17.3999L98.6847 17.5561L98.6326 17.6082L98.5818 17.7644L98.5298 17.8686L98.4777 17.9714L98.4256 18.1277L98.3748 18.2319L98.3227 18.4402L98.2707 18.5964L98.2186 18.9597L98.1665 19.168V20.5716L98.2707 21.0924L98.3227 21.1966L98.3748 21.4049L98.4256 21.4557L98.5818 21.7682L98.6326 21.8723L98.6847 21.9244L98.7367 22.0286H98.8409V22.1328L98.893 22.1848L98.9437 22.2369L98.9958 22.2877L99.1 22.3918H99.2028V22.496L99.307 22.5481L99.3591 22.6002L99.4619 22.6523L99.514 22.7043L99.6182 22.7564L99.6689 22.8085L99.7731 22.8606L99.8759 22.9127L99.928 22.9648L100.136 23.0168L100.187 23.0689L100.394 23.121L100.498 23.1718L101.119 23.328L101.689 23.3801H103.14L103.814 23.328L104.021 23.2759L104.539 23.1718L104.642 23.121L104.901 23.0689L105.005 23.0168L105.212 22.9648L105.315 22.9127L105.472 22.8606L105.574 22.8085L105.679 22.7564L105.731 22.7043L105.783 22.6002L105.833 22.3918L105.886 22.1328L105.938 21.9244L105.99 21.664L106.042 21.4557L106.093 21.3008L106.145 21.0403L106.197 20.832V20.6237H105.783L105.679 20.6758L105.626 20.7278L105.472 20.7799L105.419 20.832L105.315 20.8841L105.212 20.9362L105.108 20.9883L104.953 21.0403L104.849 21.0924L104.694 21.1445L104.59 21.1966L104.28 21.3008L104.176 21.3528L103.865 21.4049L103.658 21.4557H102.312L102.156 21.4049L101.846 21.3528L101.742 21.3008L101.689 21.2487L101.535 21.1966L101.482 21.1445L101.378 21.0924L101.328 21.0403L101.223 20.9883L101.119 20.8841L101.068 20.832L101.016 20.7278L100.964 20.6758L100.912 20.5195L100.861 20.4167L100.809 20.2604L100.757 19.9479L100.705 19.6875H106.559L106.611 19.6354L106.663 19.5326L106.715 19.2722L106.767 19.168L106.818 18.8555L106.87 18.7006L106.922 18.1277V17.5561L106.87 17.0353L106.818 16.8804L106.767 16.672L106.715 16.5679L106.663 16.4116L106.559 16.2033L106.508 16.1512L106.456 16.1004L106.404 15.9963L106.3 15.8921L106.249 15.84L106.093 15.6838L106.042 15.6317L105.938 15.5796L105.833 15.4754L105.731 15.4234L105.626 15.3713L105.524 15.3192L105.419 15.2671L105.265 15.2164L105.16 15.1643L105.005 15.1122L104.746 15.0601L104.59 15.008L104.176 14.9559L103.555 14.9039H103.037L102.571 14.9559Z" fill="white" stroke="white" stroke-width="0.0021008"/>
</g>
<path d="M58.901 15.3192L58.8489 15.6317L58.7968 15.7879L58.7461 16.1004L58.694 16.2033L58.6419 16.5679L58.5898 16.672L58.5377 16.8804L58.4856 17.1394L58.4349 17.3478L58.3828 17.6082L58.3307 17.8165L58.2786 18.0756L58.2279 18.2839L58.1758 18.5444L58.1237 18.7006L58.0717 18.9076L58.0196 19.168L57.9688 19.3764L57.9167 19.6354L57.8647 19.8438L57.8126 20.1042L57.7618 20.3125L57.7097 20.5195L57.6577 20.8841V21.7682L57.7097 22.0807L57.7618 22.2369L57.8126 22.2877L57.8647 22.4439L57.9167 22.496L57.9688 22.6002L58.0196 22.6523L58.0717 22.7564L58.1758 22.8606L58.2786 22.9127L58.4349 23.0689L58.5898 23.121L58.6419 23.1718L58.7447 23.2238L58.901 23.2759L59.0559 23.328L59.3671 23.3801L59.8852 23.4322H59.9881L60.4555 23.3801L60.8174 23.328L60.9723 23.2759L61.1806 23.2238L61.2835 23.1718L61.3876 23.121L61.5425 23.0689L61.6467 23.0168L61.7495 22.9648L61.8537 22.9127L61.9565 22.8606L62.0086 22.8085L62.1128 22.7564L62.2156 22.7043L62.2677 22.6523L62.3719 22.6002L62.4747 22.5481L62.5789 22.496L62.6309 22.4439V22.6002L62.5789 22.8085L62.5268 22.9648V23.1718H65.1683L65.2204 22.9648L65.2725 22.8085L65.3246 22.6002L65.3767 22.3398L65.4274 22.1328L65.4795 21.8723L65.5316 21.664L65.5837 21.4049L65.6344 21.2487L65.6865 20.9362L65.7386 20.7799L65.7907 20.5716L65.8428 20.3125L65.8935 20.1042L65.9456 19.8438L65.9977 19.6354L66.0498 19.3764L66.1018 19.168L66.1526 18.9076L66.2047 18.7006L66.2568 18.5444L66.3088 18.2319L66.3609 18.1277L66.4117 17.8165L66.4638 17.6603L66.5158 17.3478L66.5679 17.1915L66.62 16.9324L66.6708 16.7241L66.7228 16.5158L66.7749 16.2554L66.827 16.1004L66.8777 15.7879L66.9298 15.6317L66.9819 15.3192V15.1643H64.3404L64.2883 15.3192L64.2362 15.6317L64.1841 15.7879L64.1334 16.1004L64.0813 16.2554L64.0292 16.5679L63.9771 16.672L63.925 17.0353L63.8743 17.1394L63.8222 17.3478L63.7701 17.6082L63.718 17.8165L63.6673 18.0756L63.6152 18.2839L63.5631 18.5444L63.511 18.7527L63.4589 19.0118L63.4082 19.168L63.3561 19.3764L63.304 19.6354L63.2519 19.8438L63.1999 20.1042L63.1491 20.3125L63.097 20.5716L63.0449 20.7799L62.9408 20.832L62.8379 20.8841L62.7338 20.9362L62.6309 20.9883L62.4747 21.0403L62.3719 21.0924L62.2156 21.1445L62.0607 21.1966L61.7495 21.2487H61.1806L60.9215 21.1966L60.8174 21.1445L60.7145 21.0924L60.6625 21.0403L60.6104 20.9362L60.5583 20.7799V20L60.6104 19.7396L60.6625 19.4284L60.7145 19.2722L60.7653 18.9597L60.8174 18.8034L60.8695 18.4923L60.9215 18.336L60.9723 18.1277L61.0244 17.8686L61.0765 17.7124L61.1285 17.3999L61.1806 17.2436L61.2314 16.9324L61.2835 16.7762L61.3355 16.4637L61.3876 16.3074L61.4397 16.1004L61.4905 15.84L61.5425 15.6838L61.5946 15.3713V15.1643H58.9531L58.901 15.3192Z" fill="white" stroke="white" stroke-width="0.0021008"/>
<path d="M33.8796 18.1798C34.0492 17.4519 34.8919 16.5679 35.7973 16.5679H36.2113C36.7028 16.5679 37.2997 16.9859 37.2997 17.4519V18.1798H33.8796ZM39.785 18.6485L39.8371 18.4923L39.8892 18.0756V17.5561L39.8371 17.1915L39.785 16.8804L39.7343 16.7241L39.6822 16.5679L39.6301 16.4637H39.578C39.1467 15.9656 39.124 15.7011 38.4309 15.3793C37.886 15.1269 37.3572 15.008 36.5732 15.008H35.8481C33.2426 15.008 31.1352 17.2262 31.1352 19.8959V20.2084C31.1352 22.2249 33.0289 23.328 35.1229 23.328H35.9522C37.1381 23.328 37.7912 22.9047 38.6379 22.703L39.0599 20.6758H38.905C38.6058 20.6758 37.3531 21.5598 36.0564 21.5598H35.6411C34.4138 21.5598 33.6218 20.8961 33.6218 19.6354L39.5153 19.6341L39.785 18.6485Z" fill="white" stroke="white" stroke-width="0.0021008"/>
<path d="M31.6012 0.393968L31.5492 0.550218L31.4971 0.862718L31.445 1.01897L31.3942 1.2273L31.3422 1.48638L31.2901 1.64263L31.238 1.95513L31.1859 2.11138V2.31838L34.3977 2.37046L34.347 2.52671L34.2949 2.83922L34.2428 2.99546L34.1907 3.30663L34.1386 3.46288L34.0879 3.77538L34.0358 3.93029L33.9837 4.13863L33.9316 4.39904L33.8796 4.55529L33.8288 4.86646L33.7767 5.02271L33.7246 5.33521V5.49146L32.5855 10.7439L35.2631 10.7399L35.9001 8.09162H35.9522L36.0043 7.8312L36.0564 7.62287L36.1071 7.36379L36.1592 7.20754L36.2113 6.89504L36.2634 6.73879L36.3141 6.42762L36.3662 6.27137L36.4183 6.06304L36.4704 5.80262L36.5225 5.59563L36.5745 5.33521L36.6253 5.12688L36.6774 4.86646L36.7295 4.65946L36.7815 4.39904L36.8323 4.19071L36.8844 4.03446L36.9365 3.7233L36.9885 3.56705L37.0406 3.25455L37.0914 3.15038L37.1435 2.78713L37.1955 2.68296L37.2476 2.37046L40.5102 2.31838L40.5623 2.11138L40.6143 1.95513L40.6664 1.64263L40.7185 1.48638L40.7693 1.33013L40.8213 1.01897L40.8734 0.862718L40.9255 0.550218L40.9776 0.393968V0.239054H31.652L31.6012 0.393968Z" fill="white" stroke="white" stroke-width="0.0021008"/>
<path d="M21.8096 0.393968L21.7589 0.602302V0.862718L21.4477 2.31838H24.6595V2.47463C24.6595 2.89931 24.2722 4.02511 24.1988 4.50855C24.0906 5.20968 23.8262 5.90946 23.7273 6.58387C23.6299 7.24226 23.3628 7.98879 23.2559 8.65919C23.1745 9.17736 22.7938 10.2604 22.7938 10.7439L25.4822 10.7425L27.4052 2.31838H30.7199L30.772 2.2663L30.824 1.95513L30.8761 1.79888L30.9269 1.48638L30.979 1.33013L31.031 1.01897L31.0831 0.862718L31.1352 0.654385L31.186 0.393968V0.239054H21.8617L21.8096 0.393968Z" fill="white" stroke="white" stroke-width="0.0021008"/>
<path d="M46.9338 15.1643L46.6747 15.2164L46.4677 15.2671L46.3128 15.3192L46.1058 15.3713L46.0537 15.4234L45.8988 15.4754L45.7946 15.5275L45.6918 15.5796L45.5876 15.6317L45.5356 15.6838L45.4314 15.7359L45.3286 15.7879L45.2244 15.84L45.1736 15.8921L45.0695 15.9442L45.0174 15.9963L44.9146 16.0484L44.8104 16.1004L44.7583 16.1512L44.7062 16.2033V16.1004L44.7583 15.8921L44.8104 15.6317L44.8625 15.4234V15.1643H42.2209L42.1688 15.4234L42.1168 15.6317L42.0647 15.8921L42.0126 16.1004L41.9618 16.3595L41.9098 16.5679L41.8577 16.7241L41.8056 16.9845L41.7535 17.1394L41.7028 17.4519L41.6507 17.6082L41.5986 17.9194L41.5465 18.0756L41.4958 18.2839L41.4437 18.5444L41.3916 18.7006L41.3395 19.0118L41.2874 19.168L41.2367 19.4805L41.1846 19.6354L41.1325 19.9479L41.0804 20.1042L41.0283 20.3125L40.9776 20.5716L40.9255 20.7799L40.8734 21.0403L40.8213 21.1966L40.7693 21.5078L40.7185 21.664L40.6664 21.9765L40.6143 22.1328L40.5623 22.3398L40.5102 22.6002L40.4594 22.7564L40.4073 23.0689V23.1718H43.0489L43.101 23.0689L43.1531 22.7564L43.2052 22.6002L43.2559 22.2877L43.308 22.1328L43.3601 21.8723L43.4122 21.664L43.4629 21.5078L43.515 21.1966L43.5671 21.0403L43.6192 20.7278L43.6712 20.5716L43.722 20.2604L43.7741 20.1042L43.8262 19.8958L43.8782 19.6354L43.9303 19.4805L43.9811 19.168L44.0332 19.0118L44.0852 18.7006L44.1373 18.5444L44.1894 18.2319L44.2402 18.1277L44.2922 17.9194L44.3964 17.8686L44.4992 17.8165L44.7583 17.7644L44.9653 17.7124L45.6918 17.6082H46.5719L46.9338 17.6603H47.504L47.5561 17.5561L47.6082 17.2436L47.659 17.0874L47.711 16.8283L47.7631 16.6199L47.8152 16.4637L47.8673 16.1512L47.918 15.9963L47.9701 15.7359L48.0222 15.5275V15.1643L47.5561 15.1122H47.3491L46.9338 15.1643Z" fill="white" stroke="white" stroke-width="0.0021008"/>
<path d="M9.73956 26.9164C9.99063 27.2917 10.3606 27.7738 10.6597 28.125C10.8867 28.3921 10.7759 29.6007 10.7759 30.0895C10.8547 30.0508 12.4279 29.5166 12.4332 29.5166C12.5668 29.5166 13.7941 30.0187 14.0919 30.0895V29.4124C14.0919 28.4803 13.8461 28.5911 14.3363 27.9421C14.4938 27.7337 15.024 27.1127 15.0761 26.9164C14.8103 26.855 13.4802 26.4677 13.3667 26.3435C13.2639 26.2313 12.5187 25.1149 12.4853 24.992L12.4345 24.9573L11.4209 26.429L9.73956 26.9164Z" fill="white" stroke="white" stroke-width="0.0021008"/>
<path d="M17.6135 28.3734V30.0895C17.9381 30.0134 19.0692 29.5166 19.2735 29.5219C19.5553 29.5272 20.577 30.0601 20.9295 30.0895L20.9429 29.7756L20.8788 28.3227L21.9138 26.9151L20.2685 26.4396L19.2201 24.992C19.0478 25.3192 18.742 25.7198 18.5163 26.0537C18.1718 26.5625 18.0182 26.4957 17.3758 26.6774C16.5011 26.9244 16.4544 26.7695 16.8804 27.3411C16.9952 27.496 17.6135 28.2358 17.6135 28.3734Z" fill="white" stroke="white" stroke-width="0.0021008"/>
<path d="M24.4525 28.3734V30.0895C24.8237 30.0027 25.796 29.5419 26.0644 29.5299C26.1579 29.5259 27.5748 30.0214 27.715 30.0895L27.711 28.3173L28.7514 26.9164C28.523 26.863 27.1181 26.4557 27.0299 26.3568C26.7722 26.0684 26.3288 25.1749 26.0577 24.992C25.82 25.3486 25.5836 25.6811 25.3432 26.043C24.992 26.5718 24.8985 26.4837 24.2148 26.6774C23.4682 26.8897 23.2185 26.7695 23.714 27.3451C23.8235 27.472 24.4525 28.2652 24.4525 28.3734Z" fill="white" stroke="white" stroke-width="0.0021008"/>
<path d="M51.1819 5.12688L51.1299 5.33521L51.0791 5.59563L51.027 5.75054L50.9749 6.06304L50.9229 6.21929L50.8708 6.53046L50.82 6.68671L50.7679 6.99921V7.15546H56.2073L56.2594 7.05129L56.3102 6.73879L56.3622 6.58254L56.4143 6.27137L56.4664 6.11512L56.5185 5.80262L56.5692 5.64637L56.6213 5.49146L56.6734 5.17896V5.02271H51.234L51.1819 5.12688Z" fill="white" stroke="white" stroke-width="0.0021008"/>
<path d="M83.3001 20.6237L83.248 20.7799L83.1959 21.0924L83.1438 21.2487L83.0931 21.4557L83.041 21.7682L82.9889 21.9244L82.9368 22.2369L82.8861 22.3918L82.834 22.7043L82.7819 22.8606V23.1718H85.4755L85.5276 23.121L85.5797 22.8085L85.6305 22.6523L85.6825 22.3398L85.7346 22.1848L85.7867 21.8723L85.8388 21.7161L85.8895 21.4049L85.9416 21.2487L85.9937 21.0403L86.0458 20.7799L86.0965 20.5716V20.3125H83.3521L83.3001 20.6237Z" fill="white" stroke="white" stroke-width="0.0021008"/>
</g>
<defs>
<clipPath id="clip0_5_218">
<rect width="106.923" height="40" fill="white"/>
</clipPath>
</defs>
</svg>
